<svg id="Layer_1" data-name="Layer 1" xmlns="http://www.w3.org/2000/svg" viewBox="0 0 614.56 308.18"><defs><style>.cls-1{fill:#dd800b;}.cls-2{fill:#fff;stroke:#000;stroke-miterlimit:10;stroke-width:7px;}.cls-3{fill:#010101;}</style></defs><polygon class="cls-1" points="307.28 308.18 0 308.18 307.28 0.9 614.56 0.9 307.28 308.18"/><path class="cls-2" d="M108.41,313a78.07,78.07,0,0,0,13.31,12.25l-3.27,13.25a8.76,8.76,0,0,0,5.42,10.3L143.22,356a8.74,8.74,0,0,0,10.85-4.22l6.17-12.06a77.38,77.38,0,0,0,18.81-.53L186.18,351a8.75,8.75,0,0,0,11.11,3.44l18.8-8.57a8.75,8.75,0,0,0,4.68-10.66l-4.09-12.63A77.87,77.87,0,0,0,230.47,308l12.72,3.13a8.76,8.76,0,0,0,10.3-5.42l7.23-19.35a8.75,8.75,0,0,0-4.23-10.85L245,269.6a76.77,76.77,0,0,0-.63-19.8L255,243.4a8.75,8.75,0,0,0,3.44-11.12l-8.57-18.79a8.75,8.75,0,0,0-10.66-4.68l-11.64,3.75a76.8,76.8,0,0,0-14.17-13.39l2.88-11.69a8.79,8.79,0,0,0-5.43-10.31l-19.3-7.2a8.72,8.72,0,0,0-10.84,4.23l-5.33,10.42a77.13,77.13,0,0,0-20.58.64L148.61,175a8.75,8.75,0,0,0-11.12-3.44l-18.79,8.57A8.75,8.75,0,0,0,114,190.83l3.67,11.37a76.75,76.75,0,0,0-14.31,15.58L91.6,214.86a8.79,8.79,0,0,0-10.31,5.43l-7.22,19.34a8.73,8.73,0,0,0,4.23,10.85l11.42,5.86a75.49,75.49,0,0,0,1,19.57l-11,6.61a8.75,8.75,0,0,0-3.44,11.12l8.57,18.79a8.77,8.77,0,0,0,10.66,4.69Zm44.88-81.91A34.15,34.15,0,1,1,136.4,276.3,34.21,34.21,0,0,1,153.29,231.05Z" transform="translate(-32.44 -165.92)"/><path class="cls-3" d="M364.38,201.74l-13.74-3.85a8.62,8.62,0,0,0-10.32,5.05l-3.14,7.63a62.42,62.42,0,0,0-16.76,1.94l-5-6.85a8.7,8.7,0,0,0-11.25-2.47l-12.43,7A8.65,8.65,0,0,0,288,221.07l3.25,7.8a62.24,62.24,0,0,0-10.59,13.69l-8.53-1.35a8.63,8.63,0,0,0-9.68,6.2l-3.82,13.8a8.61,8.61,0,0,0,5.05,10.32L272.2,275a64.54,64.54,0,0,0,2.16,15.9l-7.42,5.41a8.69,8.69,0,0,0-2.47,11.24l7,12.44a8.66,8.66,0,0,0,10.88,3.74l9-3.75A63.9,63.9,0,0,0,303,329.1l-1.53,9.72a8.64,8.64,0,0,0,6.2,9.68l13.74,3.85a8.63,8.63,0,0,0,10.32-5.06l3.71-9a63,63,0,0,0,15.3-1.73l5.84,8.05a8.71,8.71,0,0,0,11.25,2.48l12.43-7a8.65,8.65,0,0,0,3.75-10.87l-3.68-8.82a64.12,64.12,0,0,0,10.24-12.81l9.3,1.46a8.64,8.64,0,0,0,9.68-6.21l3.85-13.73a8.63,8.63,0,0,0-5.06-10.32l-8.54-3.48A62.39,62.39,0,0,0,398,259.16L405.1,254a8.7,8.7,0,0,0,2.47-11.25l-7-12.43a8.67,8.67,0,0,0-10.88-3.75l-8,3.35a63.21,63.21,0,0,0-12.5-10l1.35-8.45A8.59,8.59,0,0,0,364.38,201.74Zm-14.63,97a28,28,0,1,1,10.66-38.06A28,28,0,0,1,349.75,298.77Z" transform="translate(-32.44 -165.92)"/><path class="cls-3" d="M205.8,406.53a8.65,8.65,0,0,0-3.52,11l3.54,8a8.64,8.64,0,0,0,10.47,4.77l6.2-1.92a50.25,50.25,0,0,0,8.79,8.27L229.63,443a8.65,8.65,0,0,0,5.24,10.24l8.18,3.15a8.64,8.64,0,0,0,10.78-4l3-5.76a50.57,50.57,0,0,0,12.54-.21l3.38,5.76a8.66,8.66,0,0,0,11,3.52l8-3.54a8.62,8.62,0,0,0,4.77-10.47l-1.89-6.06A52.19,52.19,0,0,0,304,426l6,1.55a8.64,8.64,0,0,0,10.24-5.24l3.15-8.17a8.65,8.65,0,0,0-4-10.79L314,400.53a50.28,50.28,0,0,0-.24-13.2l5-2.92a8.65,8.65,0,0,0,3.52-11l-3.54-8a8.62,8.62,0,0,0-10.47-4.77l-5.4,1.67a52,52,0,0,0-9.34-9l1.4-5.36a8.63,8.63,0,0,0-5.25-10.23l-8.17-3.16a8.65,8.65,0,0,0-10.78,4l-2.47,4.66a50.91,50.91,0,0,0-13.73.26l-2.76-4.71a8.64,8.64,0,0,0-11-3.52l-8,3.54A8.62,8.62,0,0,0,228,349.29l1.61,5.2a51.94,51.94,0,0,0-9.66,10.26l-5.4-1.42a8.64,8.64,0,0,0-10.23,5.24l-3.17,8.22a8.64,8.64,0,0,0,4,10.78l5.35,2.81a50.69,50.69,0,0,0,.53,13.07Zm47.29-32.46a22.77,22.77,0,1,1-11.62,30A22.78,22.78,0,0,1,253.09,374.07Z" transform="translate(-32.44 -165.92)"/></svg>